<svg width="18" height="17" viewBox="0 0 18 17" fill="none" xmlns="http://www.w3.org/2000/svg">
<path d="M11.9833 8.5C11.9833 10.15 10.6499 11.4833 8.99993 11.4833C7.34993 11.4833 6.0166 10.15 6.0166 8.5C6.0166 6.85 7.34993 5.51666 8.99993 5.51666C10.6499 5.51666 11.9833 6.85 11.9833 8.5Z" stroke="#4F4F4F" stroke-width="1.5" stroke-linecap="round" stroke-linejoin="round"/>
<path d="M8.99987 15.3916C11.9415 15.3916 14.6832 13.6583 16.5915 10.6583C17.3415 9.48331 17.3415 7.50831 16.5915 6.33331C14.6832 3.33331 11.9415 1.59998 8.99987 1.59998C6.0582 1.59998 3.31654 3.33331 1.4082 6.33331C0.658203 7.50831 0.658203 9.48331 1.4082 10.6583C3.31654 13.6583 6.0582 15.3916 8.99987 15.3916Z" stroke="#4F4F4F" stroke-width="1.5" stroke-linecap="round" stroke-linejoin="round"/>
</svg>
